<?xml version="1.0" encoding="utf-8"?>
<svg version="1.2" baseProfile="tiny" xmlns="http://www.w3.org/2000/svg" xmlns:xlink="http://www.w3.org/1999/xlink"
	 x="0px" y="0px" width="256px" height="256px" viewBox="0 0 256 256" xml:space="preserve">
<rect x="0" y="0" fill="#dedede" width="256" height="256"/>
<path fill="#FFFFFF" d="M195.919,197.89c-31.472-11.47-41.529-21.144-41.529-41.861c0-12.435,9.611-8.374,13.827-31.149
	c1.751-9.447,10.237-0.152,11.864-21.719c0-8.593-4.632-10.731-4.632-10.731s2.354-12.722,3.275-22.508
	c1.141-12.2-7.045-43.712-50.725-43.712c-43.68,0-51.87,31.513-50.725,43.712c0.922,9.786,3.275,22.508,3.275,22.508
	s-4.632,2.138-4.632,10.731c1.62,21.567,10.109,12.272,11.856,21.719c4.225,22.776,13.827,18.714,13.827,31.149
	c0,20.717-10.049,30.391-41.521,41.861C28.509,209.396,8,221.124,8,229.123V256h120h120v-26.877
	C248,221.124,227.491,209.396,195.919,197.89"/>
</svg>
